<?xml version="1.0" encoding="UTF-8"?>
<svg id="Layer_1" data-name="Layer 1" xmlns="http://www.w3.org/2000/svg" viewBox="0 0 1920.07 229">
  <defs>
    <style>
      .cls-1 {
        fill: #343434;
      }
    </style>
  </defs>
  <path class="cls-1" d="m1915.52,71.32c1.49-.04,2.98-.18,4.48-.32-.04-1.04-.06-2.08.07-3.12-.16-1.48-.33-3.01-.4-4.44-1.5.1-2.96.21-4.4.37-1.6.18-2.3-.29-2.25-2.11.19-5.98-.12-12.01.5-17.93.73-6.88,1.16-13.73,1.02-20.63-.03-1.54-.34-2.55-2.04-2.58-2.87-.06-5.74-.16-8.61-.34-1.32-.08-1.88.35-1.87,1.8.02,2.25-.12,4.51-.15,6.76-.16,11.35-.28,22.7-.49,34.05-.01.77-.62,2.05-1.15,2.18-2.36.58-4.78.85-7.19,1.2-2.02.29-2.81-.46-2.81-2.81-.02-12.82-.23-25.65-.35-38.47l-10.26,2.23c-.36.2-.4,1.24-.42,1.9-.35,11.81-.68,23.62-1.02,35.44-.02.68-.11,1.36-.19,2.34-2.04-.21-3.92-.51-5.81-.58-1.81-.07-2.31-.88-2.27-2.76.2-10.49.27-20.99.42-31.48.04-3.15.07-4.75-.67-5.59-1.32-.18-2.59-.5-3.82-.97-.42-.02-.81-.04-1.31-.06-8.02-.29-7.69-1.04-8.16,7.8-.56,10.53-.74,21.08-1.01,31.62-.04,1.4-.5,1.95-1.77,2.02-2.28.12-4.55.45-6.82.47-4.88.03-5.07-.23-4.69-5.39.39-5.42.87-10.83,1.24-16.25.25-3.64.4-7.29.53-10.93.06-1.78.12-3.59-.13-5.33-.09-.61-1.06-1.46-1.68-1.52-1.96-.2-3.95-.04-5.93-.09-1.71-.04-2.51.7-2.55,2.58-.16,6.83-.43,13.67-.59,20.5-.1,4.35,0,8.71-.14,13.06-.02.66-.79,1.85-1.24,1.87-1.13.05-2.26.04-3.39.02,0,.17,0,.35,0,.52-1.19.09-2.38.17-3.53.3-1.6.18-2.3-.29-2.25-2.11.19-5.98-.12-12.01.5-17.93.73-6.88,1.16-13.73,1.02-20.63-.03-1.54-.34-2.55-2.04-2.58-2.87-.06-5.74-.16-8.61-.34-1.32-.08-1.88.35-1.87,1.8.02,2.25-.12,4.51-.15,6.76-.16,11.35-.28,22.7-.49,34.05-.01.77-.62,2.05-1.15,2.18-2.36.58-4.78.85-7.19,1.2-2.02.29-2.81-.46-2.81-2.81-.02-12.82-.23-25.65-.35-38.47l-10.26,2.23c-.36.2-.4,1.24-.42,1.9-.35,11.81-.68,23.62-1.02,35.44-.02.68-.11,1.36-.19,2.34-2.04-.21-3.92-.51-5.81-.58-1.81-.07-2.31-.88-2.27-2.76.2-10.49.27-20.99.42-31.48.04-3.15.07-4.75-.67-5.59-1.32-.18-2.59-.5-3.82-.97-.42-.02-.81-.04-1.31-.06-8.02-.29-7.69-1.04-8.16,7.8-.56,10.53-.74,21.08-1.01,31.62-.04,1.4-.5,1.95-1.77,2.02-2.28.12-4.55.45-6.82.47-4.88.03-5.07-.23-4.69-5.39.39-5.42.87-10.83,1.24-16.25.25-3.64.4-7.29.53-10.93.06-1.78.12-3.59-.13-5.33-.09-.61-1.06-1.46-1.68-1.52-1.96-.2-3.95-.04-5.93-.09-1.71-.04-2.51.7-2.55,2.58-.16,6.83-.43,13.67-.59,20.5-.1,4.35,0,8.71-.14,13.06-.02.66-.79,1.85-1.24,1.87-.75.03-1.5.75-2.26,1.24-1.04.01-2.06.03-2.75.11-1.6.18-1.34-3.43-1.28-5.25.19-5.98-.12-12.01.5-17.93.73-6.88,1.16-13.73,1.02-20.63-.03-1.54-.34-2.55-2.04-2.58-2.87-.06-5.74-.16-8.61-.34-1.32-.08-1.88.35-1.87,1.8.02,2.25-.12,4.51-.15,6.76-.16,11.35-.28,22.7-.49,34.05-.01.77-.62,2.05-1.15,2.18-2.36.58-4.78.85-7.19,1.2-2.02.29-2.81-.46-2.81-2.81-.02-12.82-.23-25.65-.35-38.47l-10.26,2.23c-.36.2-.4,1.24-.42,1.9-.35,11.81-.68,23.62-1.02,35.44-.02.68-.11,1.36-.19,2.34-2.04-.21-3.92-.51-5.81-.58-1.81-.07-2.31-.88-2.27-2.76.2-10.49.27-20.99.42-31.48.04-3.15.07-4.75-.67-5.59-1.32-.18-2.59-.5-3.82-.97-.42-.02-.81-.04-1.31-.06-8.02-.29-7.69-1.04-8.16,7.8-.56,10.53-.74,21.08-1.01,31.62-.04,1.4-.5,1.95-1.77,2.02-2.28.12-4.55.45-6.82.47-4.88.03-5.07-.23-4.69-5.39.39-5.42.87-10.83,1.24-16.25.25-3.64.4-7.29.53-10.93.06-1.78.12-3.59-.13-5.33-.09-.61-1.06-1.46-1.68-1.52-1.96-.2-3.95-.04-5.93-.09-1.71-.04-2.51.7-2.55,2.58-.16,6.83-.43,13.67-.59,20.5-.1,4.35,0,8.71-.14,13.06-.02.66-.79,1.85-1.24,1.87-1.13.05-2.26.04-3.39.02,0,.17,0,.35,0,.52-1.19.09-2.38.17-3.53.3-1.6.18-2.3-.29-2.25-2.11.19-5.98-.12-12.01.5-17.93.73-6.88,1.16-13.73,1.02-20.63-.03-1.54-.34-2.55-2.04-2.58-2.87-.06-5.74-.16-8.61-.34-1.32-.08-1.88.35-1.87,1.8.02,2.25-.12,4.51-.15,6.76-.16,11.35-.28,22.7-.49,34.05-.01.77-.62,2.05-1.15,2.18-2.36.58-4.78.85-7.19,1.2-2.02.29-2.81-.46-2.81-2.81-.02-12.82-.23-25.65-.35-38.47l-10.26,2.23c-.36.2-.4,1.24-.42,1.9-.35,11.81-.68,23.62-1.02,35.44-.02.68-.11,1.36-.19,2.34-2.04-.21-3.92-.51-5.81-.58-1.81-.07-2.31-.88-2.27-2.76.2-10.49.27-20.99.42-31.48.04-3.15.07-4.75-.67-5.59-1.32-.18-2.59-.5-3.82-.97-.42-.02-.81-.04-1.31-.06-8.02-.29-7.69-1.04-8.16,7.8-.56,10.53-.74,21.08-1.01,31.62-.04,1.4-.5,1.95-1.77,2.02-2.28.12-4.55.45-6.82.47-4.88.03-5.07-.23-4.69-5.39.39-5.42.87-10.83,1.24-16.25.25-3.64.4-7.29.53-10.93.06-1.78.12-3.59-.13-5.33-.09-.61-1.06-1.46-1.68-1.52-1.96-.2-3.95-.04-5.93-.09-1.71-.04-2.51.7-2.55,2.58-.16,6.83-.43,13.67-.59,20.5-.1,4.35,0,8.71-.14,13.06-.02.66-.79,1.85-1.24,1.87-1.13.05-2.26.04-3.39.02-.03,2.84-.08,5.69-.14,8.53,1.34.11,2.68.21,4.03.34.29.03.74.57.78.91.24,2.29,1.02,4.78.44,6.84-1.69,6.05-1.33,12.16-1.33,18.28,0,6.41,0,12.82,0,19.24h-915.52c-.02-.38-.03-.85-.04-1.48-.06-3.33-.26-4.37-1.4-7.89-.54-1.64-1.2-3.91-1.48-5.02-.5-2.05-1.85-8.35-2.33-10.85-.3-1.57-.37-1.7-2.55-4.09-1.36-1.48-1.8-2.12-5.02-7.2-1.94-3.07-3.87-6.07-4.3-6.69-1.34-1.97-1.62-2.55-1.51-3.05.05-.26,1.17-2.5,2.5-5,2.2-4.13,2.43-4.63,2.59-5.55.22-1.3-.01-3.79-.57-6.34-.3-1.33-.4-2.1-.4-3.1v-1.3l1.6-4.44c1.57-4.33,3.19-9.21,5.75-17.26.69-2.19,1.34-4.07,1.42-4.17.12-.15.19-.15.49,0,1.52.81,3.67,1.11,6.11.84,1.67-.18,1.83-.18,2.51.07.4.14,1.98.56,3.53.94l2.79.71.41.62c.62.99,1.39,1.78,2.08,2.16.6.33.68.34,1.34.18.39-.08,1.08-.37,1.53-.62.46-.26,1.36-.62,2.01-.83,1.04-.33,1.17-.41,1.33-.8.1-.27.31-.49.55-.57.67-.24.94-1.03.96-2.8.01-1.64-.21-3.72-.51-4.72-.23-.76-.45-.94-2.25-1.94-1.15-.62-1.63-1.03-4.34-3.63-1.67-1.6-3.5-3.43-4.04-4.06-.91-1.06-.99-1.21-1.08-1.89-.1-.9-.45-1.36-1.47-1.9-.39-.2-1.63-1.07-2.78-1.93-1.13-.84-2.62-1.93-3.31-2.4-.68-.48-1.25-.91-1.25-.96s.46-.8,1.02-1.66c.57-.86,1.22-2,1.48-2.53.4-.84.46-1.1.46-1.93,0-.88-.03-.96-.31-1.11-.3-.14-.41-.07-1.33.75-.55.49-1.17,1.09-1.39,1.32-.36.41-1.96,1.3-2.08,1.17-.04-.03.04-.42.17-.86.12-.43.28-1.29.37-1.91.14-1.09.13-1.14-.15-1.59-.28-.43-.36-.48-.93-.48h-.63l-1.4,1.96c-.78,1.07-1.75,2.27-2.17,2.66-.41.38-.98.99-1.26,1.33q-.6.79-1.56.9c-1,.12-4.46,1.55-7.47,3.07-1.71.87-3.04,1.68-4.95,3.01-2.69,1.87-2.68,1.87-5.16,2.63-.44.14-.23.3.78.67,1.03.35,1.2.35,2.52-.01.14-.04-.9.54-2.32,1.29l-2.56,1.37-1.69,1.86c-2.15,2.39-2.69,3.01-2.61,3.1.03.03.57-.03,1.2-.14.64-.11,1.21-.2,1.29-.2.22,0-1.02,1.25-1.7,1.72-.37.24-.68.5-.68.56s.42.07.94.01c2.15-.23,2.15-.27.08,1.11-1.25.84-2.25,1.4-3.06,1.71-1.12.42-1.31.56-2.48,1.7-.69.67-1.24,1.28-1.2,1.33.03.05.71-.04,1.51-.22s1.6-.31,1.78-.33c.57,0-1.29,1.02-2.93,1.63-5.71,2.12-7.14,2.88-9.62,5.12-.89.8-1.57,1.48-1.51,1.49.06.03.57-.16,1.11-.43l.99-.46v.58c0,.54-.06.65-.8,1.41-.45.45-.93.98-1.07,1.18-.24.33-.4.37-3.35.81l-3.09.45-5.21-.18c-4.98-.16-5.38-.2-8.88-.75-4.04-.62-6.87-1.3-10.38-2.5-3.72-1.28-4.07-1.33-6.78-1.15-1.98.12-2.7.23-4.86.75-2.23.54-2.91.79-5.62,1.96-1.92.81-3.53,1.62-4.22,2.06-1.42.92-1.85,1.1-4.07,1.6-2.11.49-3.22.52-5.17.14-1.04-.2-1.96-.27-3.54-.27h-2.14l-1.85.65c-2.41.86-5.48,2.7-7.47,4.48-1.26,1.14-1.36,1.26-2.61,3.42l-1.3,2.25-.67,2.84c-.63,2.61-.72,3.26-1.2,7.74-.28,2.69-.57,6.08-.64,7.54-.06,1.45-.26,3.61-.41,4.79l-.27,2.13-.84,1.37c-.45.75-.8,1.38-.76,1.43.04.04.42-.12.86-.35.44-.23.82-.39.85-.37.13.12-.5,2.32-1.02,3.56-.32.75-1.45,3.23-2.53,5.54-1.87,3.99-1.97,4.26-2.48,6.38l-.54,2.2.14,2.05c.08,1.13.19,2.13.24,2.24.05.11.42.73.82,1.41l.72,1.21.06-1c.08-1.14.04-1.17.71.57.19.52.4.92.46.92s.12-.38.12-.84.03-.8.06-.76c.04.04.22.64.4,1.32.3,1.15.42,1.4,1.49,2.91,1.02,1.44,1.39,1.9,1.39,1.7,0-.03-.21-.69-.46-1.48-.41-1.26-1-3.79-.9-3.88.01-.01.32.37.67.86.35.49.71.99.78,1.11.37.49.27-.03-.33-1.68-.57-1.56-.64-1.94-.76-3.38-.08-.9-.12-1.64-.1-1.67.03-.01.32.75.67,1.7.35.96.69,1.74.76,1.74.08,0,.21-.46.3-1.02.1-.56.19-1.05.22-1.07s.32.19.64.46c.32.29.62.49.64.45.04-.03-.08-.58-.24-1.24-.15-.65-.28-1.18-.27-1.18s.5.61,1.08,1.36c.58.75,1.11,1.36,1.16,1.36.06,0-.15-.94-.46-2.08l-.59-2.06.17-1.9c.08-1.05.23-2.34.31-2.85l.17-.95.14.54c.08.3.21.83.3,1.19.14.62.36.98.37.61.01-.1.12-.81.23-1.6.17-1.07.32-1.56.58-1.97l.35-.54v.88c0,.6-.13,1.3-.39,2.17-.22.69-.39,1.29-.39,1.32,0,.19.3-.1.82-.77.35-.46.64-.8.67-.79.09.11-.23,2.17-.41,2.62-.49,1.24-1.05,3.05-.96,3.05.06,0,.66-.71,1.33-1.57l1.22-1.56.28-1.77c.15-.98.33-2.58.41-3.56.12-1.6.19-1.97.73-3.49.5-1.43.78-2,1.85-3.64,1.2-1.85,1.27-2.02,1.58-3.33.44-1.85.46-1.89.6-1.32.36,1.4.51,1.9.6,1.9.21,0,.68-3.04.85-5.44.1-1.34.19-3.6.19-5,.01-2.2-.04-2.96-.39-5.53-.37-2.69-.41-3.18-.33-5.08.06-2.06.08-2.15.73-4.28.64-2.1.68-2.2,1.61-3.45.91-1.22,1.04-1.33,2.26-2.02,1.04-.6,3.1-1.38,3.62-1.38.05,0-.22.45-.59.98-.94,1.36-2.24,5-2.68,7.47-.3,1.72-.3,1.75-.14,6.11.21,5.32.66,11.15,1.18,14.96.41,3.05.5,5.59.24,6.88-.17.79-1.24,2.76-2.08,3.83-.3.37-.93.94-1.4,1.26-1.08.73-3.53,1.91-5.12,2.47-1.15.41-1.25.48-1.63,1.09-.35.53-.44.84-.55,1.93-.18,1.55-1.83,8.17-2.66,10.66-1.33,3.96-1.87,5.4-2.89,7.68-1.21,2.62-2.44,4.67-3.8,6.23-1.45,1.7-1.67,2.05-1.81,2.86-.05.28-.07.51-.07.74h-158.13c.03-1.63.07-3.27.1-4.91.1-5.42.22-10.84.25-16.26.02-3.63-.19-7.27-.18-10.9.02-6.66.19-13.31.13-19.97-.02-1.88.45-2.66,2.27-2.71,1.49-.04,2.98-.18,4.47-.32-.04-1.04-.06-2.08.07-3.11-.16-1.48-.33-3.01-.4-4.43-1.5.1-2.96.21-4.39.37-1.59.18-2.3-.29-2.24-2.11.19-5.97-.12-11.98.5-17.89.73-6.86,1.16-13.7,1.02-20.59-.03-1.54-.34-2.54-2.04-2.57-2.86-.06-5.73-.16-8.59-.34-1.31-.08-1.88.35-1.87,1.79.02,2.25-.12,4.5-.15,6.75-.16,11.32-.28,22.65-.49,33.97-.01.76-.62,2.05-1.15,2.18-2.35.58-4.77.85-7.17,1.19-2.01.29-2.8-.45-2.81-2.8-.02-12.8-.23-25.59-.35-38.38l-10.23,2.23c-.36.2-.4,1.24-.42,1.9-.35,11.78-.68,23.57-1.02,35.36-.02.68-.11,1.36-.19,2.33-2.03-.21-3.91-.51-5.8-.58-1.8-.07-2.31-.88-2.27-2.75.2-10.47.27-20.94.42-31.41.04-3.14.07-4.73-.67-5.57-1.31-.18-2.59-.5-3.81-.97-.42-.02-.81-.04-1.31-.06-8-.29-7.67-1.03-8.14,7.78-.56,10.5-.73,21.03-1.01,31.55-.04,1.4-.5,1.95-1.77,2.01-2.27.12-4.54.45-6.81.46-4.87.03-5.06-.23-4.68-5.38.39-5.4.87-10.8,1.24-16.21.25-3.63.4-7.27.53-10.91.06-1.77.12-3.58-.13-5.32-.09-.6-1.05-1.45-1.68-1.52-1.96-.2-3.94-.04-5.92-.09-1.7-.04-2.5.7-2.55,2.58-.15,6.82-.43,13.64-.58,20.46-.1,4.34,0,8.69-.14,13.03-.02.66-.78,1.84-1.24,1.86-1.13.05-2.25.04-3.38.02,0,.17,0,.35,0,.52-1.19.09-2.38.17-3.53.3-1.59.18-2.3-.29-2.24-2.11.19-5.97-.12-11.98.5-17.89.73-6.86,1.16-13.7,1.02-20.59-.03-1.54-.34-2.54-2.04-2.57-2.86-.06-5.73-.16-8.59-.34-1.31-.08-1.88.35-1.87,1.79.02,2.25-.12,4.5-.15,6.75-.16,11.32-.28,22.65-.49,33.97-.01.77-.62,2.05-1.15,2.18-2.35.58-4.77.85-7.17,1.19-2.01.29-2.8-.46-2.81-2.8-.02-12.8-.23-25.59-.35-38.38l-10.23,2.23c-.36.2-.4,1.24-.42,1.9-.35,11.78-.68,23.57-1.02,35.36-.02.68-.11,1.36-.19,2.33-2.03-.21-3.91-.51-5.8-.58-1.8-.07-2.31-.88-2.27-2.75.2-10.47.27-20.94.42-31.41.04-3.14.07-4.73-.67-5.57-1.31-.18-2.59-.5-3.81-.97-.42-.02-.81-.04-1.31-.06-8-.29-7.67-1.03-8.14,7.78-.56,10.5-.73,21.03-1.01,31.55-.04,1.4-.5,1.95-1.77,2.01-2.27.12-4.54.45-6.81.46-4.87.03-5.06-.23-4.68-5.38.39-5.4.87-10.8,1.24-16.21.25-3.63.4-7.27.53-10.91.06-1.77.12-3.58-.13-5.32-.09-.6-1.05-1.45-1.68-1.52-1.96-.2-3.94-.04-5.92-.09-1.7-.04-2.5.7-2.55,2.58-.15,6.82-.43,13.64-.58,20.46-.1,4.34,0,8.69-.14,13.03-.02.66-.78,1.84-1.24,1.86-.75.03-1.5.75-2.25,1.24-1.03.01-2.05.03-2.75.11-1.59.18-1.33-3.42-1.28-5.24.19-5.97-.12-11.98.5-17.89.73-6.86,1.16-13.7,1.02-20.59-.03-1.54-.34-2.54-2.04-2.57-2.86-.06-5.73-.16-8.59-.34-1.31-.08-1.88.35-1.87,1.79.02,2.25-.12,4.5-.15,6.75-.16,11.32-.27,22.65-.49,33.97-.01.76-.62,2.05-1.15,2.18-2.35.58-4.77.85-7.17,1.19-2.01.29-2.8-.45-2.81-2.8-.02-12.8-.23-25.59-.35-38.38l-10.23,2.23c-.36.2-.4,1.24-.42,1.9-.35,11.78-.68,23.57-1.02,35.36-.02.68-.11,1.36-.19,2.33-2.03-.21-3.91-.51-5.8-.58-1.8-.07-2.31-.88-2.27-2.75.2-10.47.27-20.94.42-31.41.04-3.14.07-4.73-.67-5.57-1.31-.18-2.59-.5-3.81-.97-.42-.02-.81-.04-1.31-.06-8-.29-7.67-1.03-8.14,7.78-.56,10.5-.73,21.03-1.01,31.55-.04,1.4-.5,1.95-1.77,2.01-2.27.12-4.54.45-6.81.46-4.87.03-5.06-.23-4.68-5.38.39-5.4.87-10.8,1.24-16.21.25-3.63.4-7.27.53-10.91.06-1.77.12-3.58-.13-5.32-.09-.6-1.05-1.45-1.68-1.52-1.96-.2-3.94-.04-5.92-.09-1.7-.04-2.5.7-2.55,2.58-.15,6.82-.43,13.64-.58,20.46-.1,4.34,0,8.69-.14,13.03-.02.66-.78,1.84-1.24,1.86-1.13.05-2.25.04-3.38.02,0,.17,0,.35,0,.52-1.19.09-2.38.17-3.53.3-1.59.18-2.3-.29-2.24-2.11.19-5.97-.12-11.98.5-17.89.73-6.86,1.16-13.7,1.02-20.59-.03-1.54-.34-2.54-2.04-2.57-2.86-.06-5.73-.16-8.59-.34-1.31-.08-1.88.35-1.87,1.79.02,2.25-.12,4.5-.15,6.75-.16,11.32-.27,22.65-.49,33.97-.01.77-.62,2.05-1.15,2.18-2.35.58-4.77.85-7.17,1.19-2.01.29-2.8-.46-2.81-2.8-.02-12.8-.23-25.59-.35-38.38l-10.23,2.23c-.36.2-.4,1.24-.42,1.9-.35,11.78-.68,23.57-1.02,35.36-.02.68-.11,1.36-.19,2.33-2.03-.21-3.91-.51-5.8-.58-1.8-.07-2.31-.88-2.27-2.75.2-10.47.27-20.94.42-31.41.04-3.14.07-4.73-.67-5.57-1.31-.18-2.59-.5-3.81-.97-.42-.02-.81-.04-1.31-.06-8-.29-7.67-1.03-8.14,7.78-.56,10.5-.73,21.03-1.01,31.55-.04,1.4-.5,1.95-1.77,2.01-2.27.12-4.54.45-6.81.46-4.87.03-5.06-.23-4.68-5.38.39-5.4.87-10.8,1.24-16.21.25-3.63.4-7.27.53-10.91.06-1.77.12-3.58-.13-5.32-.09-.6-1.05-1.45-1.68-1.52-1.96-.2-3.94-.04-5.92-.09-1.7-.04-2.5.7-2.55,2.58-.15,6.82-.43,13.64-.58,20.46-.1,4.34,0,8.69-.14,13.03-.02.66-.78,1.84-1.24,1.86-1.13.05-2.25.04-3.38.02-.03,2.84-.08,5.67-.14,8.51,1.34.11,2.68.21,4.02.34.29.03.74.56.78.9.24,2.28,1.02,4.77.44,6.82-1.69,6.04-1.32,12.13-1.33,18.24,0,6.53,0,13.06,0,19.59H.15v103.21h1919.85v-103.21h-7.05c.03-1.5.06-3.01.09-4.52.1-5.43.22-10.86.25-16.3.02-3.64-.19-7.28-.18-10.93.01-6.67.19-13.34.13-20.01-.02-1.89.45-2.67,2.27-2.72Zm-45.78,5.96c.01-1.93.6-2.69,2.39-2.62,1.82.07,3.65.01,5.72.01-.04.97-.05,1.8-.11,2.61-.34,4.03-.73,8.01.53,12.01.43,1.37-.05,3.06-.11,4.61-.18,4.25-.41,8.5-.54,12.76-.1,3.18-.04,6.36-.12,9.53-.08,3.2-.19,6.39-.28,9.59h-7.94c.17-16.17.34-32.34.47-48.51Zm-27.4,24.96c.69-8.09.14-16.3.14-24.45,0-.85,0-1.7,0-2.51h12.8c-.66,16.98-1.32,33.74-1.97,50.51h-11.19c1.13-7.8-.45-15.69.22-23.54Zm-19.94,21.85c.1-5.43.22-10.86.25-16.3.02-3.64-.19-7.28-.18-10.93.02-6.67.19-13.34.13-20.01-.02-1.89.45-2.67,2.27-2.72,1.05-.03,2.11-.13,3.17-.23,0,.14,0,.29,0,.43,1.34.11,2.68.21,4.03.34.29.03.74.57.78.91.24,2.29,1.02,4.78.44,6.84-1.69,6.05-1.33,12.16-1.33,18.28,0,8.36,0,16.72,0,25.08h-9.6c.01-.56.02-1.13.03-1.69Zm-23.34-36.62c.03-3.02.37-6.04.73-9.04.06-.53.84-1.29,1.38-1.39,2.46-.44,4.97-.63,7.44-.99,1.81-.27,2.39.71,2.34,2.37-.14,4.65-.38,9.3-.43,13.95-.12,11.14-.22,22.28-.31,33.42h-10.94c-.06-7.26,0-14.52-.05-21.79-.03-5.51-.22-11.02-.16-16.53Zm-19.97-7.37c.01-1.93.6-2.69,2.39-2.62,1.82.07,3.65.01,5.72.01-.04.97-.05,1.8-.11,2.61-.34,4.03-.73,8.01.53,12.01.43,1.37-.05,3.06-.11,4.61-.18,4.25-.41,8.5-.54,12.76-.1,3.18-.04,6.36-.12,9.53-.06,2.26-.13,4.51-.2,6.77h-7.99c.16-15.23.32-30.45.44-45.68Zm-27.4,24.96c.69-8.09.14-16.3.14-24.45,0-.85,0-1.7,0-2.51h12.8c-.63,16.03-1.24,31.86-1.86,47.68h-11c.48-6.88-.67-13.81-.08-20.72Zm-16.98-8c.01-6.67.19-13.34.13-20.01-.02-1.89-.27.42,1.56.37,1.49-.04,3.52.23,5.02.08.29.03.74.57.78.91.24,2.29,1.02,4.78.44,6.84-1.69,6.05-1.33,12.16-1.33,18.28,0,7.42,0,14.84,0,22.25h-6.7c0-.5.02-1,.03-1.5.1-5.43.22-10.86.25-16.3.02-3.64-.19-7.28-.18-10.93Zm-23.41-9.4c.03-3.02.37-6.04.73-9.04.06-.53.84-1.29,1.38-1.39,2.46-.44,4.97-.63,7.44-.99,1.81-.27,2.39.71,2.34,2.37-.14,4.65-.38,9.3-.43,13.95-.12,11.08-.22,22.15-.31,33.23h-10.95c-.06-7.2,0-14.4-.04-21.59-.03-5.51-.22-11.02-.16-16.53Zm-19.97-7.37c.01-1.93.6-2.69,2.39-2.62,1.82.07,3.65.01,5.72.01-.04.97-.05,1.8-.11,2.61-.34,4.03-.73,8.01.53,12.01.43,1.37-.05,3.06-.11,4.61-.18,4.25-.41,8.5-.54,12.76-.1,3.18-.04,6.36-.12,9.53-.06,2.19-.13,4.38-.19,6.57h-8c.16-15.16.32-30.32.43-45.49Zm-27.4,24.96c.69-8.09.14-16.3.14-24.45,0-.85,0-1.7,0-2.51h12.8c-.62,15.97-1.24,31.73-1.85,47.49h-10.99c.45-6.82-.67-13.68-.09-20.53Zm-19.74-25.38c-.02-1.89.45-2.67,2.27-2.72,1.05-.03,2.11-.13,3.17-.23,0,.14,0,.29,0,.43,1.34.11,2.68.21,4.03.34.29.03.74.57.78.91.24,2.29,1.02,4.78.44,6.84-1.69,6.05-1.33,12.16-1.33,18.28,0,7.35,0,14.71,0,22.06h-9.54c.1-4.99.2-9.98.22-14.97.02-3.64-.19-7.28-.18-10.93.02-6.67.19-13.34.13-20.01Zm-23.54,10.61c.03-3.02.37-6.04.73-9.04.06-.53.84-1.29,1.38-1.39,2.46-.44,4.97-.63,7.44-.99,1.81-.27,2.39.71,2.34,2.37-.14,4.65-.38,9.3-.43,13.95-.11,10.13-.2,20.27-.28,30.4h-10.99c-.03-6.26.01-12.51-.02-18.77-.03-5.51-.22-11.02-.16-16.53Zm-19.97-7.37c.01-1.93.6-2.69,2.39-2.62,1.82.07,3.65.01,5.72.01-.04.97-.05,1.8-.11,2.61-.34,4.03-.73,8.01.53,12.01.43,1.37-.05,3.06-.11,4.61-.18,4.25-.41,8.5-.54,12.76-.1,3.18-.04,6.36-.12,9.53-.03,1.25-.08,2.5-.11,3.75h-8.05c.15-14.22.3-28.44.4-42.66Zm-27.4,24.96c.69-8.09.14-16.3.14-24.45,0-.85,0-1.7,0-2.51h12.8c-.59,15.01-1.16,29.85-1.74,44.66h-11c.07-5.89-.7-11.8-.2-17.7Zm-965.75,6.52c.76-1.11,1.15-2.54,1.36-5.05.21-2.38.36-3.68.63-5.16.18-.95,1.17-7.85,1.47-10.25.08-.6.62-2.78,1.2-4.85,1.02-3.67,1.05-3.76,1.43-3.91.55-.2.58-.19.68.35.06.38.22.58.67.92.32.23,1.89,1.52,3.49,2.88,2.51,2.1,3.18,2.59,4.9,3.57,1.09.62,2.62,1.53,3.38,2.01,1.4.88,5.51,4.2,7.28,5.87,1.62,1.53,3.04,4.06,4.62,8.3.96,2.58,1.44,5.01,1.44,7.39,0,1.53.32,4.06.71,5.65.14.6.35,1.03.63,1.36.6.69.75,1.14.64,2,0,.04-.01.07-.02.11h-45.73c2.78-3.1,4.19-4.58,5.23-5.5,4.25-3.77,5.52-4.98,5.98-5.68Zm-50.79-13.16c.19-.61.72-2,1.15-3.05,2.91-7.2,3.44-8.76,4.17-12.19.58-2.73.59-2.85.67-5.81.06-2.67.1-3.01.28-2.96.12.04.44.12.72.19.28.07,1.42.56,2.52,1.09,3.05,1.48,7.54,3.11,12.99,4.77,2.71.81,6.61,2.01,8.66,2.65,5.08,1.59,7.19,1.98,10.67,1.98,1.39,0,2.53.04,2.53.1,0,.5.69,8.66.9,10.63.19,1.91.27,3.57.3,6.92.03,5.02.01,5.15-1.03,7.16-.44.86-.78,1.32-1.49,1.98-1.34,1.25-3.9,3.27-5.75,4.55-2.6,1.78-3.41,2.81-3.67,4.68-.08.52-.19.73-.57,1.06-.4.35-.53.39-.98.33-.28-.04-.66-.23-.84-.39-.18-.18-.63-.49-1.02-.69-.57-.3-.81-.35-1.27-.29-.6.09-1.52.71-2.48,1.65h-10.55c-.08-.86-.18-1.7-.23-1.92-.19-.75-1.05-1.81-2.51-3.11-4.23-3.76-5.94-5.59-9.56-10.22-1.99-2.55-3.16-4.25-3.46-5-.12-.29-.28-1.07-.37-1.75-.15-1.21-.15-1.24.22-2.34Zm-31.35,10.41c1.53-2.93,2.52-4.59,3.5-5.85.75-.95,4.52-4.62,5.39-5.23.27-.19,1.08-.95,1.79-1.68,2.74-2.84,5.47-5.25,7.46-6.61,1.07-.72,2.52-1.82,3.24-2.44.73-.62,1.35-1.13,1.38-1.13.04,0,.15.33.26.73.28,1.02.27,4.13-.04,6.39-.21,1.53-.33,2-.96,3.6-.41,1.03-.81,2.28-.91,2.85-.27,1.59-.33,3-.15,3.49.18.5.71.99,7.18,6.77,3.9,3.49,4.99,4.55,6.39,6.19,2.77,3.23,3.85,4.7,4.98,6.71.03.05.05.08.07.13h-45.84c1.58-4.13,4.15-9.88,6.27-13.92Zm-195.45-27.52c.03-3.01.37-6.03.73-9.02.06-.53.84-1.29,1.38-1.39,2.46-.43,4.95-.62,7.43-.99,1.81-.27,2.38.71,2.33,2.37-.14,4.64-.38,9.28-.43,13.91-.13,12.19-.23,24.38-.33,36.56h-10.86c-.12-8.32-.03-16.64-.08-24.96-.03-5.5-.22-10.99-.16-16.49Zm-19.92-7.35c.01-1.92.6-2.68,2.38-2.62,1.82.07,3.64.01,5.71.01-.04.97-.05,1.79-.11,2.6-.34,4.02-.73,7.99.53,11.98.43,1.37-.05,3.06-.11,4.6-.18,4.24-.41,8.49-.54,12.73-.1,3.17-.04,6.34-.12,9.51-.09,3.32-.19,6.65-.29,9.97h-7.92c.17-16.27.35-32.53.47-48.8Zm-27.34,24.9c.68-8.07.14-16.26.14-24.4,0-.85,0-1.69,0-2.5h12.77c-.67,17.08-1.32,33.93-1.98,50.79h-11.21c1.25-7.92-.4-15.92.28-23.89Zm-19.89,21.8c.1-5.42.22-10.84.25-16.26.02-3.63-.19-7.27-.18-10.9.01-6.66.19-13.31.13-19.97-.02-1.88.45-2.66,2.27-2.71,1.05-.03,2.11-.13,3.16-.23,0,.14,0,.29,0,.43,1.34.11,2.68.21,4.02.34.29.03.74.56.78.9.24,2.28,1.02,4.77.44,6.82-1.69,6.04-1.32,12.13-1.33,18.24,0,8.47,0,16.95,0,25.42h-9.58c.01-.7.03-1.39.04-2.09Zm-23.29-36.54c.03-3.01.37-6.03.73-9.02.06-.53.84-1.29,1.38-1.39,2.46-.43,4.95-.62,7.43-.99,1.81-.27,2.38.71,2.33,2.37-.14,4.64-.38,9.28-.43,13.91-.12,11.25-.22,22.5-.31,33.75h-10.91c-.07-7.38-.01-14.76-.05-22.14-.03-5.5-.22-10.99-.16-16.49Zm-19.92-7.35c.01-1.92.6-2.68,2.38-2.62,1.82.07,3.64.01,5.71.01-.04.97-.05,1.79-.11,2.6-.34,4.02-.73,7.99.53,11.98.43,1.37-.05,3.06-.11,4.6-.18,4.24-.41,8.49-.54,12.73-.1,3.17-.04,6.34-.12,9.51-.06,2.38-.14,4.77-.21,7.15h-7.97c.16-15.33.32-30.65.44-45.98Zm-27.34,24.9c.68-8.07.14-16.26.14-24.4,0-.85,0-1.69,0-2.5h12.77c-.63,16.13-1.25,32.05-1.87,47.97h-10.98c.56-7-.65-14.05-.06-21.07Zm-16.94-7.98c.01-6.66.19-13.31.13-19.97-.02-1.88-.27.42,1.56.37,1.49-.04,3.51.22,5.01.08.29.03.74.56.78.9.24,2.28,1.02,4.77.44,6.82-1.69,6.04-1.32,12.13-1.33,18.24,0,7.53,0,15.07,0,22.6h-6.7c.01-.63.03-1.26.04-1.9.1-5.42.22-10.84.25-16.26.02-3.63-.19-7.27-.18-10.9Zm-23.36-9.38c.03-3.01.37-6.03.73-9.02.06-.53.84-1.29,1.38-1.39,2.46-.43,4.95-.62,7.43-.99,1.81-.27,2.38.71,2.33,2.37-.14,4.64-.38,9.28-.43,13.91-.12,11.18-.22,22.37-.31,33.55h-10.92c-.06-7.31-.01-14.63-.05-21.94-.03-5.5-.22-10.99-.16-16.49Zm-19.92-7.35c.01-1.92.6-2.68,2.38-2.62,1.82.07,3.64.01,5.71.01-.04.97-.05,1.79-.11,2.6-.34,4.02-.73,7.99.53,11.98.43,1.37-.05,3.06-.11,4.6-.18,4.24-.41,8.49-.54,12.73-.1,3.17-.04,6.34-.12,9.51-.06,2.32-.14,4.64-.2,6.96h-7.97c.16-15.26.32-30.52.44-45.79Zm-27.34,24.9c.68-8.07.14-16.26.14-24.4,0-.85,0-1.69,0-2.5h12.77c-.63,16.06-1.25,31.92-1.86,47.78h-10.98c.52-6.93-.66-13.92-.07-20.88Zm-19.69-25.32c-.02-1.88.45-2.66,2.27-2.71,1.05-.03,2.11-.13,3.16-.23,0,.14,0,.29,0,.43,1.34.11,2.68.21,4.02.34.29.03.74.56.78.9.24,2.28,1.02,4.77.44,6.82-1.69,6.04-1.32,12.13-1.33,18.24,0,7.47,0,14.94,0,22.41h-9.52c.1-5.11.21-10.22.23-15.34.02-3.63-.19-7.27-.18-10.9.01-6.66.19-13.31.13-19.97Zm-23.49,10.59c.03-3.01.37-6.03.73-9.02.06-.53.84-1.29,1.38-1.39,2.46-.43,4.95-.62,7.43-.99,1.81-.27,2.38.71,2.33,2.37-.14,4.64-.38,9.28-.43,13.91-.11,10.24-.2,20.49-.29,30.73h-10.96c-.03-6.38.01-12.75-.02-19.13-.03-5.5-.22-10.99-.16-16.49Zm-19.92-7.35c.01-1.92.6-2.68,2.38-2.62,1.82.07,3.64.01,5.71.01-.04.97-.05,1.79-.11,2.6-.34,4.02-.73,7.99.53,11.98.43,1.37-.05,3.06-.11,4.6-.18,4.24-.41,8.49-.54,12.73-.1,3.17-.04,6.34-.12,9.51-.04,1.38-.08,2.76-.12,4.14h-8.03c.15-14.32.3-28.64.41-42.97Zm-27.34,24.9c.68-8.07.14-16.26.14-24.4,0-.85,0-1.69,0-2.5h12.77c-.59,15.11-1.17,30.04-1.75,44.96h-10.96c.11-6.01-.71-12.04-.2-18.06Zm1875.67,18.06c-.11-8.2-.03-16.41-.07-24.61-.03-5.51-.22-11.02-.16-16.53.03-3.02.37-6.04.73-9.04.06-.53.84-1.29,1.38-1.39,2.46-.44,4.97-.63,7.44-.99,1.81-.27,2.39.71,2.34,2.37-.14,4.65-.38,9.3-.43,13.95-.13,12.08-.23,24.16-.33,36.24h-10.89Z"/>
</svg>